Coordinates
version=1
nRows=6
nColumns=63
inDegrees=yes

Units are S.I. units (second, meters, Newtons, ...)
If the header above contains a line with 'inDegrees', this indicates whether rotational values are in degrees (yes) or radians (no).

endheader
time	pelvis_tilt	pelvis_list	pelvis_rotation	pelvis_tx	pelvis_ty	pelvis_tz	hip_flexion_r	hip_adduction_r	hip_rotation_r	knee_angle_r	knee_angle_r_beta	ankle_angle_r	subtalar_angle_r	mtp_angle_r	hip_flexion_l	hip_adduction_l	hip_rotation_l	knee_angle_l	knee_angle_l_beta	ankle_angle_l	subtalar_angle_l	mtp_angle_l	L5_S1_Flex_Ext	L5_S1_Lat_Bending	L5_S1_axial_rotation	L4_L5_Flex_Ext	L4_L5_Lat_Bending	L4_L5_axial_rotation	L3_L4_Flex_Ext	L3_L4_Lat_Bending	L3_L4_axial_rotation	L2_L3_Flex_Ext	L2_L3_Lat_Bending	L2_L3_axial_rotation	L1_L2_Flex_Ext	L1_L2_Lat_Bending	L1_L2_axial_rotation	L1_T12_Flex_Ext	L1_T12_Lat_Bending	L1_T12_axial_rotation	Abs_r3	Abs_r2	Abs_r1	Abs_t1	Abs_t2	neck_flexion	neck_bending	neck_rotation	arm_flex_r	arm_add_r	arm_rot_r	elbow_flex_r	pro_sup_r	wrist_flex_r	wrist_dev_r	arm_flex_l	arm_add_l	arm_rot_l	elbow_flex_l	pro_sup_l	wrist_flex_l	wrist_dev_l
2.150000	2.795285	-5.997281	100.995436	0.019350	1.061174	0.619115	-2.463330	1.136226	-1.764432	2.490987	0.043476	26.468989	2.723409	0.000000	2.515813	-0.040747	-1.577392	10.488862	0.183065	32.364221	3.881540	0.000000	0.027669	-0.110311	-0.034669	0.051385	-0.146714	-0.036836	0.045458	-0.268211	-0.036836	0.031623	-0.268211	-0.030336	0.025694	-0.224947	-0.028169	0.015810	-0.170872	-0.026002	0.197638	-1.247864	-0.192820	0.000000	0.000000	21.066331	8.965412	0.766531	13.115651	-11.545488	-5.241474	150.242801	91.150712	-21.518950	-17.717468	20.711311	-5.740733	10.498944	149.743653	54.619767	14.058167	-10.536712
2.166667	3.007194	-6.246398	100.891551	0.018626	1.060196	0.617073	-2.367046	1.273089	-0.569919	2.287064	0.039917	26.276558	1.544356	0.000000	2.599723	-0.136769	-1.355964	10.277996	0.179385	32.502538	3.461806	0.000000	0.056220	-0.057896	-0.022651	0.104407	-0.077002	-0.024067	0.092364	-0.140768	-0.024067	0.064254	-0.140768	-0.019820	0.052206	-0.118061	-0.018404	0.032124	-0.089681	-0.016989	0.401576	-0.654931	-0.125980	0.000000	0.000000	21.991101	8.372390	2.198857	11.301954	-11.425348	-7.020446	149.666965	90.059949	-17.540761	-16.333472	19.283524	-6.033747	9.056914	148.941851	61.923540	7.290056	-9.690864
2.183333	3.204491	-6.439868	100.740092	0.017967	1.059342	0.614945	-2.338852	1.408366	0.868297	2.065764	0.036054	26.037133	0.118537	0.000000	2.591748	-0.221035	-1.032707	9.998610	0.174509	32.615851	2.921072	0.000000	0.080803	-0.008241	-0.012077	0.150059	-0.010960	-0.012831	0.132751	-0.020037	-0.012831	0.092350	-0.020037	-0.010567	0.075034	-0.016805	-0.009812	0.046171	-0.012765	-0.009057	0.577169	-0.093223	-0.067166	0.000000	0.000000	22.802158	7.829722	3.579584	9.866220	-11.125653	-9.568480	148.620899	88.327743	-11.287773	-14.109189	17.993583	-6.344322	7.658350	147.822141	69.225849	0.797685	-9.217970
2.200000	3.345471	-6.571149	100.568679	0.017480	1.058618	0.612829	-2.381744	1.507833	2.371404	1.844314	0.032189	25.806578	-1.371380	0.000000	2.496516	-0.270612	-0.698257	9.674046	0.168844	32.725760	2.421970	0.000000	0.099421	0.032014	-0.024454	0.184634	0.042578	-0.025982	0.163338	0.077838	-0.025982	0.113628	0.077838	-0.021397	0.092322	0.065282	-0.019869	0.056809	0.049589	-0.018340	0.710153	0.362144	-0.136004	0.000000	0.000000	23.455543	7.461363	5.024252	8.911313	-11.678894	-9.266490	147.056896	88.163533	-13.494521	-14.662938	16.830726	-6.724544	6.054843	146.394562	76.828290	-5.498163	-9.240333
2.216667	3.412329	-6.671197	100.341198	0.017299	1.058095	0.610792	-2.450475	1.547402	3.889344	1.639537	0.028615	25.585433	-2.832872	0.000000	2.336858	-0.264441	-0.375500	9.287714	0.162101	32.769920	1.919336	0.000000	0.115208	0.051699	-0.048279	0.213952	0.068760	-0.051296	0.189275	0.125702	-0.051296	0.131671	0.125702	-0.042244	0.106982	0.105425	-0.039227	0.065830	0.080082	-0.036209	0.822918	0.584833	-0.268513	0.000000	0.000000	23.990108	7.415516	6.129582	8.162080	-12.330108	-8.556631	144.960305	87.974602	-16.853371	-15.431126	15.900120	-7.237238	4.811462	144.687992	83.698741	-10.901811	-9.671566
2.233333	3.397828	-6.753685	100.047498	0.017467	1.057732	0.608862	-2.527404	1.518535	5.392458	1.455889	0.025410	25.380592	-4.235653	0.000000	2.130746	-0.197408	-0.094175	8.853993	0.154531	32.740673	1.439464	0.000000	0.128716	0.050746	-0.075410	0.239038	0.067492	-0.080123	0.211467	0.123383	-0.080123	0.147109	0.123383	-0.065983	0.119525	0.103481	-0.061270	0.073548	0.078605	-0.056557	0.919403	0.574047	-0.419406	0.000000	0.000000	24.439124	7.658198	6.888958	7.376011	-12.843248	-7.972939	142.370154	87.680354	-19.495472	-15.981810	15.175927	-7.856086	3.930710	142.746397	89.425514	-15.074429	-10.365917
